<svg width="40" height="40" viewBox="0 0 40 40" fill="none" xmlns="http://www.w3.org/2000/svg">
<path d="M20 40C31.0457 40 40 31.0457 40 20C40 8.9543 31.0457 0 20 0C8.9543 0 0 8.9543 0 20C0 31.0457 8.9543 40 20 40Z" fill="url(#paint0_linear)"/>
<path d="M29.2743 10.3845C26.8847 10.687 24.3931 10.6765 21.8856 10.4377C18.3839 10.1684 13.2661 8.55218 11.3806 11.7845C8.35149 16.9592 9.84548 23.5841 10.5513 29.4469L21.0777 39.9709C31.2642 39.4301 39.4281 31.2673 39.9707 21.0811L29.2743 10.3845Z" fill="url(#paint1_linear)"/>
<path d="M24.6274 8.55219H15.3731C11.6122 8.55219 8.55249 11.6119 8.55249 15.3728V24.6271C8.55249 28.3879 11.6122 31.4478 15.3732 31.4478H24.6275C28.3883 31.4478 31.4482 28.388 31.4482 24.6271V15.3728C31.4481 11.6119 28.3883 8.55219 24.6274 8.55219ZM29.1448 24.6272C29.1448 27.122 27.1223 29.1445 24.6275 29.1445H15.3732C12.8783 29.1445 10.8558 27.122 10.8558 24.6272V15.3729C10.8558 12.878 12.8783 10.8555 15.3732 10.8555H24.6275C27.1223 10.8555 29.1448 12.8781 29.1448 15.3729V24.6272Z" fill="white"/>
<path d="M20.0003 14.0784C16.7352 14.0784 14.0786 16.7349 14.0786 20.0001C14.0786 23.265 16.7352 25.9216 20.0003 25.9216C23.2655 25.9216 25.9218 23.2652 25.9218 20.0001C25.9218 16.7349 23.2655 14.0784 20.0003 14.0784ZM20.0003 23.6183C18.002 23.6183 16.3819 21.9985 16.3819 20.0001C16.3819 18.0017 18.002 16.3817 20.0003 16.3817C21.9987 16.3817 23.6185 18.0016 23.6185 20.0001C23.6185 21.9984 21.9987 23.6183 20.0003 23.6183Z" fill="white"/>
<path d="M27.3519 14.1229C27.3519 14.9065 26.7166 15.5419 25.9329 15.5419C25.1493 15.5419 24.5139 14.9065 24.5139 14.1229C24.5139 13.3392 25.1493 12.7039 25.9329 12.7039C26.7167 12.7039 27.3519 13.3391 27.3519 14.1229Z" fill="#D1D1D1"/>
<path d="M24.6274 8.55219H19.9553V10.8555H24.6274C27.1222 10.8555 29.1447 12.8781 29.1447 15.3729V24.6272C29.1447 27.122 27.1222 29.1445 24.6274 29.1445H19.9553V31.4478H24.6274C28.3881 31.4478 31.448 28.388 31.448 24.6271V15.3728C31.448 11.6119 28.3882 8.55219 24.6274 8.55219Z" fill="#D1D1D1"/>
<path d="M20.0002 14.0784C19.9851 14.0784 19.9704 14.0795 19.9553 14.0795V16.3827C19.9702 16.3826 19.9851 16.3817 20.0002 16.3817C21.9985 16.3817 23.6184 18.0016 23.6184 20.0001C23.6184 21.9984 21.9986 23.6183 20.0002 23.6183C19.9851 23.6183 19.9702 23.6174 19.9553 23.6172V25.9205C19.9704 25.9206 19.9851 25.9216 20.0002 25.9216C23.2653 25.9216 25.9217 23.2652 25.9217 20.0001C25.9217 16.7349 23.2653 14.0784 20.0002 14.0784Z" fill="#D1D1D1"/>
<defs>
<linearGradient id="paint0_linear" x1="20" y1="0" x2="20" y2="40" gradientUnits="userSpaceOnUse">
<stop stop-color="#DF0028"/>
<stop offset="0.59375" stop-color="#B200F1" stop-opacity="0.395833"/>
<stop offset="1" stop-color="#2757FF"/>
</linearGradient>
<linearGradient id="paint1_linear" x1="24.7627" y1="9.79608" x2="24.7627" y2="39.9709" gradientUnits="userSpaceOnUse">
<stop stop-color="#D00000"/>
<stop offset="1" stop-color="#961A1A" stop-opacity="0"/>
</linearGradient>
</defs>
</svg>
