<svg width="60" height="60" viewBox="0 0 60 60" fill="none" xmlns="http://www.w3.org/2000/svg">
<path d="M19.5844 25.3275C19.5787 25.3275 19.5728 25.3275 19.5672 25.3276C18.5361 25.337 17.7049 26.1834 17.7144 27.2145C17.7238 28.2399 18.5607 29.0674 19.5841 29.0674C19.5898 29.0674 19.5957 29.0674 19.6013 29.0673C20.6324 29.0579 21.4636 28.2115 21.4541 27.1804C21.4446 26.1552 20.6077 25.3275 19.5844 25.3275Z" fill="#FFDD1F"/>
<path d="M40.0839 25.1411C39.5844 25.1457 39.1167 25.3444 38.7667 25.7008C38.4167 26.0573 38.2265 26.5285 38.231 27.028C38.2404 28.0534 39.0775 28.881 40.1008 28.881C40.1064 28.881 40.1123 28.881 40.1179 28.8809C40.6174 28.8763 41.0851 28.6776 41.4351 28.3212C41.7851 27.9648 41.9753 27.4936 41.9707 26.9942C41.9662 26.4947 41.7675 26.0268 41.4111 25.6768C41.0548 25.3268 40.5867 25.1338 40.0839 25.1411Z" fill="#FFDD1F"/>
<path d="M56.3469 21.0595C54.8335 20.2542 52.7114 19.4444 51.5634 19.4444C51.5561 19.4444 51.5487 19.4444 51.5416 19.4445C50.5973 19.4531 49.8058 20.0401 49.0404 20.6077C48.0277 21.3586 47.3433 21.8182 46.5477 21.5259C46.7059 19.7911 46.8051 18.432 46.846 17.611C49.2896 16.9102 56.7394 14.6149 58.8743 12.1133C60.0882 10.691 60.3216 8.32761 59.5678 5.08884C59.0397 2.81918 58.2143 0.938158 58.1794 0.859187C58.0109 0.47757 57.6099 0.253544 57.197 0.308964C56.7837 0.364619 56.4567 0.686715 56.3949 1.09926C56.1765 2.55895 55.4226 6.68526 54.5728 8.2211C54.5503 8.25379 53.9659 9.02921 49.1506 9.81588C46.5797 10.2359 44.1202 10.4413 44.0956 10.4434C44.0082 10.4507 43.925 10.4705 43.8467 10.4996C43.1406 9.88196 42.3356 9.35834 41.4556 8.96934C38.4885 7.65788 33.5902 7.19061 29.9953 7.19061C26.4003 7.19061 21.502 7.65788 18.5349 8.96934C17.6558 9.35787 16.8518 9.88068 16.1464 10.4973C16.0699 10.4696 15.989 10.4505 15.9039 10.4434C15.8794 10.4414 13.4199 10.2359 10.8489 9.816C6.03387 9.02933 5.44943 8.25391 5.4308 8.22778C4.57712 6.68538 3.82326 2.55918 3.60485 1.09938C3.54311 0.686832 3.21621 0.364619 2.80272 0.309082C2.38923 0.253192 1.98887 0.477687 1.82038 0.859304C1.78546 0.938275 0.960014 2.81929 0.431936 5.08896C-0.32169 8.32773 -0.088291 10.6911 1.12546 12.1134C3.2994 14.6607 10.8871 17.0081 13.1474 17.6639C13.1916 18.5228 13.2962 19.9359 13.4619 21.7307C12.6363 22.1034 11.9313 21.6532 10.8694 20.8952C10.0938 20.3416 9.28763 19.7718 8.34747 19.7776C7.20473 19.788 5.08035 20.6418 3.5724 21.4796C1.19037 22.8033 -0.0114286 24.1405 0.000522553 25.4541C0.0171605 27.2872 3.49694 29.5825 6.60952 30.4962C7.71605 30.821 8.77022 30.9808 9.75385 30.9807C11.547 30.9806 13.1024 30.4468 14.307 29.4166C15.4007 38.0571 17.2594 48.9092 19.9155 54.5177C19.9306 54.5497 19.9488 54.5791 19.9669 54.6085C19.8608 55.7934 20.208 56.9706 20.9633 57.9201C21.8644 59.0528 23.2084 59.6902 24.6486 59.6818L35.61 59.6993C35.6104 59.6993 35.611 59.6993 35.6116 59.6993C35.6144 59.6993 35.6172 59.6993 35.62 59.6993C37.0674 59.6862 38.4024 59.0196 39.2827 57.8708C40.0741 56.838 40.3917 55.5518 40.1839 54.2848C42.8088 48.5549 44.6425 37.7204 45.7167 29.1561C46.9087 30.1562 48.4307 30.6729 50.1758 30.6729C51.2058 30.6729 52.3126 30.4939 53.474 30.1298C56.5696 29.1598 60.0071 26.8015 59.9904 24.9683C59.9785 23.6549 58.7527 22.3398 56.3469 21.0595ZM49.5485 11.6505C54.6884 10.8014 55.808 9.86052 56.2093 9.1356C56.763 8.13522 57.2351 6.43874 57.5855 4.88638C57.6422 5.09951 57.6968 5.31791 57.7481 5.53959C58.3354 8.07933 58.2291 9.98179 57.4485 10.8964C55.9211 12.6862 50.0214 14.715 46.8032 15.6703C46.6224 14.4608 46.123 13.2687 45.3784 12.204C46.3814 12.0993 47.9334 11.9173 49.5485 11.6505ZM2.55139 10.8963C1.77082 9.98168 1.66455 8.07933 2.25179 5.53947C2.30311 5.31779 2.35771 5.09951 2.41442 4.88626C2.76476 6.43874 3.23694 8.1351 3.79057 9.13549C4.19175 9.86041 5.31141 10.8013 10.4513 11.6504C12.0621 11.9165 13.61 12.0982 14.6133 12.203C13.8584 13.2821 13.3557 14.4921 13.1811 15.7186C10.0333 14.7719 4.09719 12.7076 2.55139 10.8963ZM13.9539 27.0049C13.1572 28.2206 11.5284 29.548 8.29252 28.9711C6.82593 28.7095 5.20373 28.0659 3.842 27.2054C2.49703 26.3556 1.94493 25.6454 1.8758 25.4152C1.90052 25.0524 2.60295 24.1631 4.48303 23.1182C6.19099 22.1692 7.83463 21.6569 8.36446 21.6521C8.36575 21.6521 8.36692 21.6521 8.3681 21.6521C8.70308 21.6521 9.27533 22.0604 9.78021 22.421C10.7664 23.1249 12.0687 24.0532 13.6481 23.649C13.7517 24.6693 13.8709 25.7712 14.0058 26.9336C13.9877 26.9564 13.9703 26.9801 13.9539 27.0049ZM37.7946 56.7305C37.2688 57.4168 36.4718 57.8154 35.6076 57.8246L24.6416 57.8072C23.7763 57.8133 22.9696 57.431 22.4304 56.753C21.8912 56.0752 21.6981 55.2035 21.9004 54.3614L22.6289 51.3306C22.7545 50.8083 22.9789 50.3335 23.2778 49.9258C23.3433 50.2564 23.4622 50.5544 23.6108 50.7913C23.8748 51.2125 24.262 51.564 24.6363 51.9039C24.9049 52.1477 25.4047 52.6015 25.4278 52.7769C25.4274 52.7787 25.3773 52.9655 24.8896 53.3051C24.4649 53.6011 24.3604 54.1853 24.6564 54.61C24.8386 54.8715 25.13 55.0116 25.4263 55.0116C25.6113 55.0116 25.798 54.957 25.9613 54.8432C26.815 54.2483 27.2523 53.6129 27.2982 52.9008C27.3658 51.8499 26.5511 51.1102 25.8964 50.5158C25.616 50.2612 25.326 49.9979 25.199 49.7955C25.0995 49.6367 25.0392 49.2613 25.1848 48.9692C25.3741 48.5893 25.8708 48.4589 26.274 48.4177L33.6834 48.464C34.0934 48.4933 34.6191 48.6102 34.8218 48.9988C34.9727 49.2882 34.9191 49.6647 34.8226 49.8251C34.6997 50.0293 34.4298 50.2921 34.169 50.5464C33.5457 51.1538 32.7699 51.9098 32.8652 52.9536C32.9304 53.6683 33.3865 54.3001 34.2594 54.885C34.4195 54.9923 34.6009 55.0438 34.7803 55.0438C35.0825 55.0438 35.379 54.8979 35.5598 54.6281C35.8479 54.1981 35.733 53.6157 35.3029 53.3276C34.7881 52.9828 34.7325 52.7852 34.7321 52.7852C34.741 52.6066 35.2383 52.122 35.4773 51.8891C35.8233 51.5519 36.1812 51.2032 36.4287 50.792C36.5809 50.5391 36.698 50.2182 36.7543 49.8644C37.098 50.281 37.3572 50.7719 37.4977 51.3127L38.2812 54.3298C38.4987 55.168 38.3215 56.0431 37.7946 56.7305ZM39.4007 51.1828L39.312 50.8414C38.6703 48.3706 36.3721 46.5896 33.8356 46.5896C33.8217 46.5896 33.8077 46.5896 33.7938 46.5897L26.2836 46.5428C26.2648 46.5419 26.246 46.542 26.227 46.5424L26.1609 46.5419C26.156 46.5419 26.1513 46.5419 26.1465 46.5419C23.6124 46.5649 21.4163 48.3538 20.8062 50.8922L20.6777 51.4269C18.8718 46.3717 17.54 38.8955 16.7008 33.1161C15.6107 25.6108 15.0128 18.6227 14.9978 16.9812C14.9976 16.9514 14.9956 16.9221 14.9927 16.8932C14.8732 14.4842 16.7079 11.8264 19.2931 10.6836C21.5177 9.70035 25.7186 9.06495 29.9955 9.06495C34.2724 9.06495 38.4732 9.70035 40.6979 10.6836C43.2046 11.7917 45.0058 14.3243 45.0039 16.6732C44.9728 16.7986 44.9675 16.9319 44.9919 17.0657C44.9586 18.8503 44.3624 25.7328 43.2902 33.1161C42.4644 38.8026 41.1624 46.1334 39.4007 51.1828ZM56.1815 26.7892C54.8356 27.6743 53.2255 28.3473 51.7638 28.6356C48.5391 29.2712 46.8861 27.9736 46.0676 26.7726C46.0501 26.7469 46.0315 26.7227 46.012 26.6994C46.1456 25.5375 46.2634 24.4384 46.3655 23.4236C47.9274 23.7656 49.1948 22.8272 50.1571 22.1135C50.6573 21.7426 51.2243 21.3222 51.5587 21.3191C51.5612 21.3191 51.5639 21.3191 51.5665 21.3191C52.1048 21.3191 53.7497 21.801 55.4661 22.7145C57.3651 23.7249 58.0833 24.6013 58.1147 24.9635C58.0499 25.195 57.5108 25.915 56.1815 26.7892Z" fill="#FFDD1F"/>
<path d="M38.7996 13.6727C39.1493 13.2911 39.1235 12.6981 38.7418 12.3484C38.3601 11.9986 37.7672 12.0244 37.4174 12.4061C36.6923 13.1975 32.8384 15.2215 30.0402 15.7753L30.6267 13.3348C30.7186 12.953 30.5625 12.5542 30.2359 12.3362C29.9091 12.118 29.4813 12.1268 29.1636 12.358C27.7283 13.403 21.905 15.9799 17.6173 16.0189C17.0997 16.0236 16.6838 16.447 16.6885 16.9647C16.6932 17.4795 17.1118 17.8936 17.6256 17.8935C17.6284 17.8935 17.6315 17.8935 17.6343 17.8935C21.2097 17.861 25.6378 16.2707 28.3028 14.9815L27.9053 16.6353C27.8378 16.9159 27.9034 17.212 28.0831 17.4379C28.2611 17.6616 28.5312 17.7918 28.8167 17.7918C28.8195 17.7918 28.8223 17.7918 28.8253 17.7918C32.119 17.7618 37.6054 14.9758 38.7996 13.6727Z" fill="#FFDD1F"/>
</svg>
