<svg width="60" height="60" viewBox="0 0 60 60" fill="none" xmlns="http://www.w3.org/2000/svg">
<path d="M24.122 8.60237C18.8803 3.3633 8.6228 2.7558 1.36225 2.7558C0.610314 2.7558 0 3.36598 0 4.11793C0 11.3785 0.604822 21.6359 5.84657 26.8778C8.05885 29.0901 11.4508 30.0791 14.8127 30.0791C18.4661 30.0791 22.0869 28.9103 24.122 26.8751C28.0262 22.971 28.7427 13.2203 24.122 8.60237ZM22.1959 24.9516C19.2808 27.864 11.1865 28.3625 7.77559 24.9516C3.54452 20.7207 2.81161 12.1251 2.73255 5.48835C9.36925 5.5674 17.9649 6.30019 22.1958 10.5313C25.6069 13.9422 25.1083 22.0392 22.1959 24.9516Z" fill="#FFDD1F"/>
<path d="M58.6378 8.14465C51.3773 8.14465 41.1198 8.74948 35.8779 13.9912C31.2574 18.6091 31.9738 28.3598 35.8779 32.264C37.9131 34.2964 41.5312 35.4652 45.1846 35.4652C48.5465 35.4652 51.9357 34.4789 54.1534 32.2668C59.3924 27.025 59.9999 16.7676 59.9999 9.50691C60.0001 8.75497 59.3898 8.14465 58.6378 8.14465ZM52.2218 30.3378C48.8109 33.7487 40.7138 33.2501 37.8015 30.3378C34.8891 27.4254 34.3905 19.3284 37.8015 15.9174C42.0325 11.6864 50.628 10.9536 57.2647 10.8745C57.1858 17.5139 56.4529 26.1095 52.2218 30.3378Z" fill="#FFDD1F"/>
<path d="M48.7999 19.936C48.4784 19.2522 47.5576 19.018 46.8792 19.3339C36.431 24.246 31.2982 32.8116 28.966 41.6169C26.0809 22.8946 17.736 17.187 14.1969 14.765C13.7556 14.4626 13.4123 14.2419 13.2216 14.054C12.6904 13.5227 11.8267 13.5227 11.2954 14.054C10.7642 14.5852 10.7642 15.4489 11.2954 15.9802C11.5651 16.2472 12.031 16.5823 12.6604 17.0127C16.6489 19.7399 27.2442 26.9896 27.2442 55.8821C27.2442 56.634 27.8545 57.2444 28.6064 57.2444C29.3584 57.2444 29.9687 56.634 29.9687 55.8849C29.9687 44.2108 33.1045 28.8205 48.0398 21.8024C48.0398 21.7997 48.2604 21.6961 48.2604 21.6961C48.9388 21.3745 49.1213 20.6171 48.7999 19.936Z" fill="#FFDD1F"/>
</svg>
