<svg width="60" height="60" viewBox="0 0 60 60" fill="none" xmlns="http://www.w3.org/2000/svg">
<path d="M42.9484 6.85975C39.9115 3.99821 34.7076 3.34513 29.9999 8.05283C25.2992 3.34975 20.0884 3.99821 17.0515 6.85744C13.5138 10.1874 13.4515 15.7582 16.8623 19.169L29.9999 32.309L43.1376 19.1713C46.5484 15.7605 46.4861 10.1898 42.9484 6.85975ZM41.5061 17.5374L29.9999 29.0459L18.4938 17.5398C15.9969 15.0405 16.0453 10.9767 18.6346 8.53975C19.7376 7.49667 21.2146 6.92437 22.793 6.92437C26.0976 6.92437 27.5838 8.89975 29.9999 11.3159C32.3515 8.96437 33.8653 6.92437 37.2069 6.92437C38.7853 6.92437 40.2623 7.49667 41.3676 8.53744C43.9499 10.9698 44.0099 15.0336 41.5061 17.5374Z" fill="#FFDD1F"/>
<path d="M56.0562 6.92438C54.0232 6.92438 52.3362 8.44745 52.1332 10.469L50.6724 24.8944C49.9686 25.0444 49.3224 25.3859 48.8216 25.8867L37.1655 36.7375C35.5616 38.1982 34.6316 40.2821 34.6155 42.4605V55.3859H48.4616V49.3028C48.4616 48.3636 48.8562 47.4498 49.5716 46.7713L58.3293 37.9328C59.407 36.8436 60.0001 35.4013 60.0001 33.8713V10.8682C60.0001 8.69438 58.2301 6.92438 56.0562 6.92438ZM57.6924 33.8713C57.6924 34.7898 57.337 35.6551 56.6886 36.3105L47.9586 45.1213C46.8116 46.2059 46.1539 47.729 46.1539 49.3028V53.0782H36.9232V42.4744C36.9347 40.9444 37.5878 39.479 38.7301 38.4405L50.4232 27.5505C50.737 27.2367 51.1662 27.0821 51.6209 27.1282C51.8724 27.1513 52.2347 27.2413 52.5439 27.5505C52.8278 27.8344 52.9847 28.2128 52.9847 28.6121C52.9847 29.0113 52.8255 29.3898 52.5832 29.6344L43.5809 37.799L45.1316 39.5067L54.1755 31.3028C54.8955 30.5828 55.2924 29.6275 55.2924 28.6098C55.2924 27.5921 54.8978 26.6367 54.1778 25.919C53.827 25.5636 53.4186 25.2913 52.9709 25.1044L54.427 10.7044C54.5124 9.86438 55.2139 9.23207 56.0562 9.23207C56.9586 9.23207 57.6924 9.96592 57.6924 10.8682V33.8713Z" fill="#FFDD1F"/>
<path d="M22.8346 36.7375L11.1785 25.8867C10.6777 25.3859 10.0315 25.0421 9.32769 24.8944L7.86692 10.469C7.66385 8.44745 5.97692 6.92438 3.94385 6.92438C1.77 6.92438 0 8.69438 0 10.8682V33.8713C0 35.4013 0.593077 36.8436 1.67077 37.9305L10.4285 46.769C11.1438 47.4475 11.5385 48.3636 11.5385 49.3028V55.3859H25.3846V42.4605C25.3708 40.2821 24.4385 38.2005 22.8346 36.7375ZM23.0769 53.0782H13.8462V49.3028C13.8462 47.7313 13.1885 46.2059 12.0415 45.1213L3.31154 36.3105C2.66308 35.6551 2.30769 34.7898 2.30769 33.8713V10.8682C2.30769 9.96592 3.04154 9.23207 3.94385 9.23207C4.78615 9.23207 5.48769 9.86438 5.57308 10.6998L7.02923 25.0998C6.58154 25.289 6.17308 25.5613 5.82231 25.9144C5.10462 26.6321 4.70769 27.5875 4.70769 28.6051C4.70769 29.6228 5.10462 30.5782 5.82462 31.2982L14.8685 39.5021L16.4192 37.7944L7.41692 29.6298C7.17231 29.3851 7.01538 29.009 7.01538 28.6075C7.01538 28.2059 7.17231 27.8298 7.45615 27.5459C7.76308 27.2367 8.12769 27.1467 8.37923 27.1236C8.83615 27.0798 9.26308 27.2321 9.57692 27.5459L21.27 38.4359C22.4123 39.4744 23.0654 40.9398 23.0769 42.4698V53.0782Z" fill="#FFDD1F"/>
</svg>
