<svg width="40" height="40" viewBox="0 0 40 40" fill="none" xmlns="http://www.w3.org/2000/svg">
<g clip-path="url(#clip0)">
<path d="M19.9998 39.9998C31.0453 39.9998 39.9995 31.0456 39.9995 20.0001C39.9995 8.95451 31.0453 0.000305176 19.9998 0.000305176C8.9542 0.000305176 0 8.95451 0 20.0001C0 31.0456 8.9542 39.9998 19.9998 39.9998Z" fill="#41B4E6"/>
<path d="M40 20.0001C40 19.5128 39.9816 19.0299 39.9474 18.5512L31.6584 10.2624L8.34155 19.4342L17.2627 28.3554L17.3798 28.7767L17.5312 28.624L17.5319 28.6246L17.3798 28.7767L27.2483 38.6452C34.7108 35.7421 40 28.4892 40 20.0001Z" fill="#0091C8"/>
<path d="M18.0577 22.914L27.0961 29.738L31.6585 10.2624L8.34155 19.4342L15.4366 21.7843L28.3853 13.0986L18.0577 22.914Z" fill="white"/>
<path d="M15.4368 21.7843L17.38 28.7768L18.0579 22.914L28.3855 13.0987L15.4368 21.7843Z" fill="#D2D2D7"/>
<path d="M20.9953 25.1318L17.3799 28.7768L18.0578 22.914L20.9953 25.1318Z" fill="#B9B9BE"/>
</g>
<defs>
<clipPath id="clip0">
<rect width="40" height="40" fill="white"/>
</clipPath>
</defs>
</svg>
