<svg width="40" height="40" viewBox="0 0 40 40" fill="none" xmlns="http://www.w3.org/2000/svg">
<path d="M20 40C31.0457 40 40 31.0457 40 20C40 8.9543 31.0457 0 20 0C8.9543 0 0 8.9543 0 20C0 31.0457 8.9543 40 20 40Z" fill="#6F3FAA"/>
<path d="M28.6767 10.9722C23.8086 9.79642 18.9318 8.42111 13.9394 10.1685C10.7071 11.3806 10.7071 14.8823 10.8418 17.8453C10.8418 18.6533 9.89905 19.7308 10.303 20.6735C11.1111 23.3671 11.7845 26.0607 14.6128 27.4075C15.0169 27.6769 14.6128 28.2156 14.8822 28.6196C14.7475 28.6196 14.4781 28.7543 14.4781 28.889C14.4781 29.5345 14.7678 30.522 14.5754 31.1585L23.1696 39.7492C32.0047 38.3421 38.9101 31.1501 39.8816 22.1772L28.6767 10.9722Z" fill="#512D84"/>
<path d="M30.5803 14.0566L30.5737 14.0302C30.0393 11.8698 27.6301 9.55166 25.4176 9.06939L25.3927 9.06424C21.8141 8.38158 18.1856 8.38158 14.6078 9.06424L14.5821 9.06939C12.3703 9.55166 9.96105 11.8699 9.42597 14.0302L9.42003 14.0566C8.7594 17.0735 8.7594 20.1332 9.42003 23.1502L9.42597 23.1766C9.93831 25.2447 12.1681 27.4564 14.298 28.0646V30.4762C14.298 31.3491 15.3617 31.7778 15.9665 31.1478L18.4099 28.6081C18.9399 28.6377 19.4701 28.6542 20.0002 28.6542C21.8015 28.6542 23.6037 28.4838 25.3926 28.1426L25.4175 28.1374C27.63 27.6552 30.0392 25.3369 30.5736 23.1767L30.5802 23.1503C31.2408 20.1332 31.2408 17.0737 30.5803 14.0566ZM28.6466 22.7128C28.2898 24.1222 26.4606 25.8744 25.0071 26.1981C23.1044 26.56 21.1865 26.7146 19.2706 26.6616C19.2325 26.6605 19.1958 26.6753 19.1693 26.7027C18.8974 26.9817 17.3853 28.5341 17.3853 28.5341L15.4878 30.4816C15.3491 30.6263 15.1053 30.5278 15.1053 30.3281V26.3331C15.1053 26.2671 15.0582 26.2111 14.9934 26.1983C14.993 26.1981 14.9927 26.1981 14.9923 26.1981C13.5389 25.8743 11.7103 24.1221 11.3528 22.7127C10.7582 19.9856 10.7582 17.2211 11.3528 14.4941C11.7103 13.0846 13.5389 11.3324 14.9923 11.0087C18.3154 10.3767 21.6848 10.3767 25.0072 11.0087C26.4614 11.3324 28.2899 13.0846 28.6467 14.4941C29.2419 17.2212 29.2419 19.9857 28.6466 22.7128Z" fill="white"/>
<path d="M23.1618 24.5569C22.9383 24.489 22.7254 24.4435 22.5275 24.3615C20.4782 23.5113 18.5923 22.4144 17.0985 20.7331C16.249 19.777 15.584 18.6975 15.022 17.5552C14.7554 17.0135 14.5308 16.4506 14.3018 15.8912C14.0931 15.3812 14.4006 14.8543 14.7243 14.4699C15.0282 14.1092 15.4192 13.8333 15.8426 13.6298C16.1731 13.471 16.499 13.5626 16.7404 13.8427C17.2622 14.4483 17.7415 15.0849 18.1295 15.7869C18.3682 16.2187 18.3027 16.7465 17.8701 17.0403C17.765 17.1117 17.6692 17.1957 17.5713 17.2763C17.4854 17.347 17.4046 17.4184 17.3457 17.5141C17.2381 17.6892 17.2329 17.8958 17.3022 18.0862C17.8355 19.5519 18.7345 20.6917 20.2099 21.3057C20.446 21.4039 20.683 21.5182 20.955 21.4866C21.4105 21.4334 21.558 20.9337 21.8772 20.6727C22.1892 20.4176 22.5879 20.4142 22.924 20.6269C23.2601 20.8397 23.5859 21.068 23.9098 21.2989C24.2278 21.5254 24.5443 21.7469 24.8375 22.0053C25.1195 22.2536 25.2166 22.5794 25.0578 22.9164C24.7672 23.5336 24.3441 24.047 23.734 24.3748C23.5618 24.4671 23.356 24.4971 23.1618 24.5569C22.9383 24.489 23.356 24.4971 23.1618 24.5569Z" fill="white"/>
<path d="M20.0058 12.924C22.6862 12.9991 24.8878 14.778 25.3596 17.428C25.44 17.8795 25.4686 18.3411 25.5044 18.7994C25.5194 18.9922 25.4102 19.1753 25.2023 19.1779C24.9874 19.1805 24.8908 19.0006 24.8767 18.808C24.8491 18.4266 24.83 18.0434 24.7774 17.6653C24.5 15.6685 22.9078 14.0166 20.9203 13.6621C20.6212 13.6087 20.3152 13.5948 20.0122 13.563C19.8207 13.5429 19.5699 13.5313 19.5275 13.2932C19.4919 13.0936 19.6604 12.9347 19.8504 12.9244C19.9019 12.9214 19.9539 12.9238 20.0058 12.924C22.6863 12.9991 19.9539 12.9238 20.0058 12.924Z" fill="white"/>
<path d="M24.079 18.2047C24.0746 18.2382 24.0723 18.3169 24.0526 18.3909C23.9815 18.66 23.5734 18.6937 23.4796 18.4222C23.4517 18.3417 23.4475 18.2499 23.4474 18.1632C23.4465 17.5956 23.3231 17.0284 23.0368 16.5344C22.7425 16.0267 22.2928 15.6 21.7655 15.3417C21.4466 15.1856 21.1018 15.0884 20.7523 15.0307C20.5996 15.0054 20.4452 14.9902 20.2917 14.9688C20.1057 14.9429 20.0063 14.8244 20.0152 14.6411C20.0234 14.4694 20.1489 14.3457 20.3361 14.3564C20.9512 14.3913 21.5454 14.5244 22.0924 14.8139C23.2044 15.4029 23.8397 16.3324 24.0252 17.5738C24.0336 17.6301 24.047 17.6857 24.0513 17.7421C24.0618 17.8813 24.0684 18.0208 24.079 18.2047C24.0746 18.2381 24.0684 18.0208 24.079 18.2047Z" fill="white"/>
<path d="M22.4118 18.1397C22.1876 18.1438 22.0676 18.0196 22.0444 17.8141C22.0284 17.6708 22.0156 17.5255 21.9814 17.386C21.914 17.1112 21.768 16.8567 21.5369 16.6883C21.4279 16.6089 21.3042 16.551 21.1747 16.5135C21.0103 16.4659 20.8393 16.479 20.6753 16.4389C20.4971 16.3952 20.3986 16.2508 20.4266 16.0837C20.4521 15.9315 20.6 15.8128 20.7664 15.8249C21.8056 15.8999 22.5483 16.4371 22.6543 17.6606C22.6619 17.7469 22.6707 17.8381 22.6515 17.9208C22.6186 18.062 22.5139 18.1328 22.4118 18.1397C22.1875 18.1437 22.5139 18.1328 22.4118 18.1397Z" fill="white"/>
<path d="M30.5801 14.0565L30.5736 14.0301C30.274 12.8191 29.3851 11.5586 28.2722 10.5995L26.7676 11.933C27.6622 12.6459 28.4288 13.6335 28.6466 14.4939C29.2419 17.221 29.2419 19.9855 28.6466 22.7127C28.2898 24.1221 26.4605 25.8743 25.0072 26.1981C23.1044 26.5599 21.1865 26.7145 19.2706 26.6615C19.2325 26.6604 19.1958 26.6753 19.1694 26.7026C18.8974 26.9817 17.3854 28.534 17.3854 28.534L15.4879 30.4815C15.3491 30.6262 15.1054 30.5278 15.1054 30.3281V26.3331C15.1054 26.267 15.0583 26.211 14.9934 26.1982C14.993 26.1982 14.9927 26.1981 14.9923 26.1981C14.1663 26.0141 13.2195 25.3685 12.4901 24.587L11.0034 25.9045C11.9319 26.9145 13.1295 27.7311 14.2978 28.0647V30.4763C14.2978 31.3492 15.3615 31.7778 15.9663 31.1479L18.4097 28.6081C18.9397 28.6378 19.4697 28.6543 20 28.6543C21.8013 28.6543 23.6035 28.4839 25.3924 28.1427L25.4173 28.1376C27.6298 27.6553 30.039 25.3372 30.5734 23.1768L30.58 23.1504C31.2407 20.1331 31.2407 17.0736 30.5801 14.0565Z" fill="#D1D1D1"/>
<path d="M23.1617 24.5567C23.356 24.4968 22.9383 24.4888 23.1617 24.5567V24.5567Z" fill="white"/>
<path d="M24.8374 22.0051C24.5442 21.7469 24.2276 21.5253 23.9098 21.2987C23.5859 21.0678 23.2601 20.8396 22.9239 20.6267C22.5879 20.4141 22.1892 20.4174 21.8772 20.6725C21.558 20.9335 21.4106 21.4332 20.955 21.4864C20.6831 21.5181 20.446 21.4037 20.2099 21.3056C19.3021 20.9279 18.6134 20.3504 18.0928 19.6213L16.9866 20.6017C17.0242 20.6453 17.06 20.6899 17.0982 20.7329C18.5921 22.4142 20.4781 23.5111 22.5273 24.3614C22.725 24.4434 22.9381 24.489 23.1615 24.5567C22.9381 24.4889 23.3559 24.497 23.1615 24.5567C23.3559 24.497 23.5615 24.4669 23.7339 24.3746C24.3442 24.0467 24.767 23.5333 25.0577 22.9161C25.2166 22.5792 25.1195 22.2535 24.8374 22.0051Z" fill="#D1D1D1"/>
<path d="M20.0126 12.9242C20.0103 12.9242 20.0081 12.924 20.0059 12.924C20.0037 12.9239 20.0065 12.924 20.0126 12.9242Z" fill="white"/>
<path d="M20.0059 12.9239C20.0081 12.9239 20.0103 12.9241 20.0126 12.9241C20.1613 12.9294 22.5807 12.9961 20.0059 12.9239Z" fill="white"/>
<path d="M23.8503 14.5186L23.3787 14.9367C24.1198 15.6578 24.6309 16.6135 24.777 17.6652C24.8295 18.0435 24.8488 18.4265 24.8764 18.8079C24.8904 19.0007 24.9869 19.1804 25.2019 19.1779C25.41 19.1753 25.5191 18.9923 25.5041 18.7995C25.4682 18.3412 25.4397 17.8795 25.3593 17.428C25.1528 16.268 24.6148 15.2749 23.8503 14.5186Z" fill="#D1D1D1"/>
<path d="M24.0248 17.5735C23.8897 16.669 23.5145 15.9309 22.8912 15.3685L22.4209 15.7853C22.6641 16.0012 22.8745 16.2547 23.0365 16.5343C23.3229 17.0283 23.4462 17.5955 23.4471 18.1631C23.4473 18.2499 23.4514 18.3416 23.4793 18.4223C23.5733 18.6939 23.9813 18.6602 24.0524 18.391C24.0721 18.3168 24.0743 18.2381 24.0788 18.2048C24.0743 18.2383 24.068 18.021 24.0788 18.2048C24.068 18.021 24.0614 17.8814 24.0509 17.742C24.0468 17.6854 24.0332 17.6298 24.0248 17.5735Z" fill="#D1D1D1"/>
<path d="M24.0791 18.2045C24.0685 18.0206 24.0747 18.2379 24.0791 18.2045V18.2045Z" fill="white"/>
<path d="M22.412 18.1395C22.4155 18.1393 22.4188 18.1375 22.4222 18.1371C22.4128 18.1371 22.3982 18.1373 22.3833 18.1379C22.393 18.1381 22.4018 18.1396 22.412 18.1395Z" fill="white"/>
<path d="M22.4118 18.1397C22.4017 18.1399 22.3928 18.1384 22.3831 18.1381C22.3346 18.1394 22.2845 18.142 22.4118 18.1397Z" fill="white"/>
<path d="M22.4221 18.1371C22.4186 18.1375 22.4152 18.1393 22.4119 18.1395C22.4381 18.1377 22.4358 18.1371 22.4221 18.1371Z" fill="white"/>
<path d="M21.9385 16.213L21.4597 16.6373C21.4861 16.6533 21.512 16.6701 21.5371 16.6883C21.7682 16.8566 21.9142 17.1112 21.9815 17.3859C22.0157 17.5255 22.0284 17.6706 22.0446 17.814C22.0667 18.0104 22.1782 18.1311 22.3833 18.1381C22.3982 18.1377 22.4129 18.1374 22.4222 18.1373C22.521 18.1264 22.62 18.0572 22.6516 17.9206C22.6707 17.838 22.662 17.7467 22.6544 17.6604C22.5949 16.9764 22.3363 16.5071 21.9385 16.213Z" fill="#D1D1D1"/>
</svg>
